<svg width="66" height="52" viewBox="0 0 66 52" fill="none" xmlns="http://www.w3.org/2000/svg">
<path d="M24.0703 21.4062H10.8047V35H2.57812V0.875H25.4062V7.22656H10.8047V15.0781H24.0703V21.4062Z" fill="white"/>
<path d="M16.1719 16.875H24.375V40.2891C24.375 42.4609 23.8672 44.3984 22.8516 46.1016C21.8516 47.8047 20.4453 49.125 18.6328 50.0625C16.8359 51 14.8281 51.4688 12.6094 51.4688C8.89062 51.4688 6 50.5312 3.9375 48.6562C1.875 46.7812 0.84375 44.125 0.84375 40.6875H9.09375C9.09375 42.25 9.35938 43.3828 9.89062 44.0859C10.4375 44.7891 11.3438 45.1406 12.6094 45.1406C13.75 45.1406 14.625 44.7188 15.2344 43.875C15.8594 43.0156 16.1719 41.8203 16.1719 40.2891V16.875Z" fill="white"/>
<path d="M27.8047 28.6719H42.125V35H19.5781V0.875H27.8047V28.6719Z" fill="white"/>
<path d="M65.0781 35H56.8984L44.8047 13.7656V35H36.5781V0.875H44.8047L56.875 22.1094V0.875H65.0781V35Z" fill="white"/>
</svg>
